<?xml version="1.0" encoding="utf-8"?>
<!-- Generator: Adobe Illustrator 15.1.0, SVG Export Plug-In . SVG Version: 6.00 Build 0)  -->
<!DOCTYPE svg PUBLIC "-//W3C//DTD SVG 1.1//EN" "http://www.w3.org/Graphics/SVG/1.1/DTD/svg11.dtd">
<svg version="1.1" xmlns="http://www.w3.org/2000/svg" xmlns:xlink="http://www.w3.org/1999/xlink" x="0px" y="0px" width="400px"
	 height="400px" viewBox="0 0 400 400" enable-background="new 0 0 400 400" xml:space="preserve">
<g id="Layer_1" display="none">
	<path display="inline" fill-rule="evenodd" clip-rule="evenodd" d="M205,108c-4.741,8.592-12.028,14.639-17,23
		c-9.132-0.306-19.728,0.402-30,0c-2.526-0.099-7.635,1.636-8-2c0.308-5.279,9.7-2.972,15-3c5.651-0.03,13.476,1.372,18,0
		c6.472-1.962,12.472-14.748,17-20C203.078,105.255,201.922,108.745,205,108z"/>
	<path display="inline" fill-rule="evenodd" clip-rule="evenodd" d="M247,106c1.987,0.013,1.271,2.729,4,2
		c-5.157,11.375-14.628,19.75-22,29c-7.476,9.379-13.985,19.186-22,28c10.104,14.8,23.364,28.596,35,43c3.435,4.252,7.92,9.635,8,15
		c-6.482,0.272-9.367-7.466-13-12c-10.791-13.467-23.577-29.38-35-43c-12.775-0.271-27.062,0.358-41,0
		c-3.452-0.089-9.304,1.756-11-2c0.721-5.483,7.778-2.88,11-3c9.578-0.356,29.778,2.682,39,0c8.122-2.362,16.793-19.338,23-27
		C232.938,123.731,241.468,115.767,247,106z"/>
	<path display="inline" fill-rule="evenodd" clip-rule="evenodd" d="M150,107c3.283,0.087,11.248-0.111,17,0
		c4.733,0.092,11.296-1.694,13,2c-0.229,5.228-8.802,2.917-14,3c-5.992,0.096-12.531,0.661-16-1C150,109.667,150,108.333,150,107z"
		/>
	<path display="inline" fill-rule="evenodd" clip-rule="evenodd" d="M226,107c3.896,3.19-2.295,7.452-5,10
		c-7.365,11.635-16.429,21.572-25,32c-11.128-0.257-23.737,0.339-36,0c-3.235-0.089-8.756,1.751-10-2c-0.402-5.197,6.955-2.899,9-3
		c8.293-0.409,25.069,2.404,33,0c5.238-1.588,10.28-11.086,15-17c6.774-8.488,11.575-13.574,16-20C224,107,225,107,226,107z"/>
	<path display="inline" fill-rule="evenodd" clip-rule="evenodd" d="M227,222c-4.937,5.017-6.943-3.523-9-6
		c-7.688-9.256-17.615-21.369-26-30c-13.669-0.664-29.997,1.33-42-1c0-0.667,0-1.333,0-2c-0.163-1.163,0.221-1.779,1-2
		c16.576,2.729,30.581-3.765,43,0c6.464,1.959,13.735,14.678,18,20C218.294,208.854,224.366,215.449,227,222z"/>
	<path display="inline" fill-rule="evenodd" clip-rule="evenodd" d="M187,200c5.27,7.796,15.611,15.633,17,24
		c-5.038,1.775-8.245-4.534-11-8c-3.09-3.888-5.426-8.537-9-11c-11.004-0.662-24.661,1.328-34-1c0-0.667,0-1.333,0-2
		c-0.163-1.163,0.221-1.779,1-2C163,200,175,200,187,200z"/>
	<path display="inline" fill-rule="evenodd" clip-rule="evenodd" d="M180,220c0.908,6.086-8.613,3.917-14,4
		c-6.233,0.097-14.149,1.275-16-2c-0.908-6.086,8.613-3.917,14-4C170.233,217.903,178.149,216.725,180,220z"/>
	<path display="inline" fill-rule="evenodd" clip-rule="evenodd" d="M149,274c1,0,2,0,3,0c1.368,1.278,1.368,4.722,0,6
		c5.124,0.124,3.035-6.966,9-6c-0.22,3.78-3.144,4.856-4,8c0.396,4.271,4.425,4.908,5,9c-5.517,0.518-5.825-4.175-8-7
		c-2.409,1.591,0.847,8.847-5,7C149,285.333,149,279.667,149,274z"/>
	<path display="inline" fill-rule="evenodd" clip-rule="evenodd" d="M177,278c-3.695,1.215-9.816-3.154-12,3
		c-0.044,3.044,2.111,3.889,3,6c4.118,0.785,5.132-1.535,9-1c-1.136,4.24-3.361,5.063-7,5C154.989,290.744,165.351,263.418,177,278z
		"/>
	<path display="inline" fill-rule="evenodd" clip-rule="evenodd" d="M190,274c1.333,0,2.667,0,4,0c1.592,5.271,6.126,12.271,5,17
		c-4.001-3.603-9.999-3.603-14,0C184.302,286.698,188.554,279.418,190,274z M191,285c4.24,1.029,2.902-5.837,0-6
		C191.813,282.458,189.133,283.222,191,285z"/>
	<path display="inline" fill-rule="evenodd" clip-rule="evenodd" d="M251,274c1,0,2,0,3,0c0,5.333,0,10.667,0,16
		c-3.185,0.659-9.079,1.638-12-2c-0.438-3.438,0.396-5.604,1-8c2.288-0.637,6.032-1.983,8,0C251,278,251,276,251,274z M245,283
		c-0.261,3.261,1.188,4.813,4,5c0.426-1.907,2.857-1.81,2-5C249.722,281.633,246.278,281.633,245,283z"/>
	<path display="inline" fill-rule="evenodd" clip-rule="evenodd" fill="#FFFFFF" d="M191,279c2.902,0.163,4.24,7.029,0,6
		C189.133,283.222,191.813,282.458,191,279z"/>
	<path display="inline" fill-rule="evenodd" clip-rule="evenodd" d="M200,280c0.31-1.357,2.504-0.829,4-1
		c-0.723,3.056,1.022,3.645,1,6c2.559-0.775,0.222-6.445,4-6c3.624-0.957,1.017,4.316,3,5c2.672-0.994,0.593-6.74,6-5
		c-1.936,3.73-2.315,9.019-5,12c-2.78-0.554-2.8-3.866-4-6c-2.156,0.844-0.844,5.156-3,6C201.311,290.022,203.094,282.573,200,280z"
		/>
	<path display="inline" fill-rule="evenodd" clip-rule="evenodd" d="M231,279c0,3.667,0,7.333,0,11c-3.01,1.239-4.462,0.062-9,1
		C215.366,285.909,219.851,275.228,231,279z M222,283c0,1.333,0,2.667,0,4c0.776,0.224,1.973,0.027,2,1c2.813-0.188,4.261-1.739,4-5
		C226.722,281.633,223.278,281.633,222,283z"/>
	<path display="inline" fill-rule="evenodd" clip-rule="evenodd" d="M234,279c3.988,0.549,3.012,0.549,7,0
		c-4.136,2.198-2.311,10.356-7,12C234,287,234,283,234,279z"/>
	<path display="inline" fill-rule="evenodd" clip-rule="evenodd" fill="#FFFFFF" d="M228,283c0.261,3.261-1.188,4.813-4,5
		c-0.027-0.973-1.224-0.776-2-1c0-1.333,0-2.667,0-4C223.278,281.633,226.722,281.633,228,283z"/>
	<path display="inline" fill-rule="evenodd" clip-rule="evenodd" fill="#FFFFFF" d="M251,283c0.857,3.19-1.574,3.093-2,5
		c-2.813-0.188-4.261-1.739-4-5C246.278,281.633,249.722,281.633,251,283z"/>
</g>
<g id="Layer_2">
	<path fill-rule="evenodd" clip-rule="evenodd" d="M265,111c-1.903,12.009-10.391,21.226-16,31c-11.164,19.452-22.369,38.85-34,59
		c-5.534,9.588-9.571,20.552-18,28c-23.132-37.535-44.963-76.369-67-115c0-0.667,0-1.333,0-2
		C173.005,109.671,220.33,111.663,265,111z M188,205c7.709-8.294,12.311-19.173,18-29c5.749-9.93,12.61-19.281,17-30
		c-3.667,0-7.333,0-11,0c-8.423,11.91-12.86,27.807-24,37c-13.132-22.201-26.018-44.649-39-67c-4,0-8,0-12,0
		C153.514,146.153,171.468,174.865,188,205z M190,175c0.463-4.87,4.38-6.286,5-11c-5.158-13.577-17.539-25.097-19-38
		c25.667,0,51.333,0,77,0c1.385-3.615,4.397-5.603,5-10c-34,0.666-70.666-1.333-103,1C167.496,135.504,177.084,156.916,190,175z
		 M188,141c14.672,1.418,35.691-3.128,43,3c-12.919,22.748-26.953,44.38-39,68c2.973,2.027,2.131,7.869,7,8
		c16.206-30.461,34.133-59.2,51-89c-22.333,0-44.667,0-67,0C183.691,135.309,186.859,137.141,188,141z M199,158
		c2.115-3.884,5.407-6.593,6-12c-4.333,0-8.667,0-13,0C193.155,151.179,195.256,155.411,199,158z"/>
	<path fill-rule="evenodd" clip-rule="evenodd" fill="#FFFFFF" d="M137,116c4,0,8,0,12,0c12.982,22.351,25.868,44.799,39,67
		c11.14-9.193,15.577-25.09,24-37c3.667,0,7.333,0,11,0c-4.39,10.719-11.251,20.07-17,30c-5.689,9.827-10.291,20.706-18,29
		C171.468,174.865,153.514,146.153,137,116z"/>
	<path fill-rule="evenodd" clip-rule="evenodd" fill="#FFFFFF" d="M155,117c32.334-2.333,69-0.334,103-1
		c-0.603,4.397-3.615,6.385-5,10c-25.667,0-51.333,0-77,0c1.461,12.903,13.842,24.423,19,38c-0.62,4.714-4.537,6.13-5,11
		C177.084,156.916,167.496,135.504,155,117z"/>
	<path fill-rule="evenodd" clip-rule="evenodd" fill="#FFFFFF" d="M183,131c22.333,0,44.667,0,67,0
		c-16.867,29.8-34.794,58.539-51,89c-4.869-0.131-4.027-5.973-7-8c12.047-23.62,26.081-45.252,39-68c-7.309-6.128-28.328-1.582-43-3
		C186.859,137.141,183.691,135.309,183,131z"/>
	<path fill-rule="evenodd" clip-rule="evenodd" fill="#FFFFFF" d="M192,146c4.333,0,8.667,0,13,0c-0.593,5.407-3.885,8.116-6,12
		C195.256,155.411,193.155,151.179,192,146z"/>
	<path fill-rule="evenodd" clip-rule="evenodd" d="M142,276c-1.133,4.099-4.432,0.237-8,1c0.834,5.166,9.09,2.91,9,9
		c-0.957,4.845-11.015,5.563-13,1c1.63-5.838,7.37,3.838,9-2c-1.632-2.368-5.871-2.129-8-4C129.049,272.123,138.777,271.64,142,276z
		"/>
	<path fill-rule="evenodd" clip-rule="evenodd" d="M165,276c-1.287,4.257-4.97-0.098-9,1c-6.574,3.034-0.764,13.603,6,9
		c1.555-3.555-3.396-0.604-3-3c-0.802-3.802,4.729-1.271,7-2c1.788,16.06-23.357,8.191-15-5
		C154.719,272.791,161.441,272.119,165,276z"/>
	<path fill-rule="evenodd" clip-rule="evenodd" d="M183,273c1,0,2,0,3,0c-0.651,5.349,1.313,13.313-1,17
		C180.561,288.106,184.168,278.165,183,273z"/>
	<path fill-rule="evenodd" clip-rule="evenodd" d="M118,274c3.04,0.627,8.614-1.28,10,1c0.802,3.802-4.729,1.271-7,2
		c-0.94,4.606,5.416,1.918,7,4c0.08,3.746-7.08,0.254-7,4c1.423,4.053,6.503-0.752,7,3c0.142,4.142-6.958,1.042-10,2
		C118,284.667,118,279.333,118,274z"/>
	<path fill-rule="evenodd" clip-rule="evenodd" d="M198,274c1,0,2,0,3,0c0,5.333,0,10.667,0,16c-5.049-0.904-8.074,0.955-12-2
		c-0.309-3.643,0.159-6.508,1-9c2.801-1.15,5.199-1.15,8,0C198,277.333,198,275.667,198,274z M193,287c3.19,0.857,3.093-1.574,5-2
		c-0.187-2.813-1.74-4.261-5-4C191.632,282.278,191.632,285.722,193,287z"/>
	<path fill-rule="evenodd" clip-rule="evenodd" d="M219,274c1.343,5.657,3.657,10.343,5,16c-5.427,1.427-3.365-4.635-9-3
		c-3.235,0.098-2.135,4.532-7,3C212.309,285.309,209.155,273.155,219,274z M218,284c-0.105-2.562-0.566-4.768-2-6
		C215.674,279.978,212.906,285.143,218,284z"/>
	<path fill-rule="evenodd" clip-rule="evenodd" d="M275,274c1,0,2,0,3,0c0,5.333,0,10.667,0,16c-4.004-1.13-6.708,0.899-11-1
		c-3.374-6.118,1.344-13.912,8-10C275,277.333,275,275.667,275,274z M270,287c2.319,0.319,3.839-0.161,5-1
		c0.229-3.562-1.438-5.229-5-5C268.633,282.278,268.633,285.722,270,287z"/>
	<path fill-rule="evenodd" clip-rule="evenodd" d="M172,279c7.066-3.056,12.052,8.861,4,11C169.026,291.853,163.996,282.461,172,279
		z M176,281c-1,0-2,0-3,0C167.831,288.249,181.169,288.249,176,281z"/>
	<path fill-rule="evenodd" clip-rule="evenodd" fill="#FFFFFF" d="M216,278c1.434,1.232,1.895,3.438,2,6
		C212.906,285.143,215.674,279.978,216,278z"/>
	<path fill-rule="evenodd" clip-rule="evenodd" d="M224,278c1,0,2,0,3,0c0.798,1.868,1.671,3.662,2,6c2.156-0.844,0.844-5.156,3-6
		c3.677-0.344,3.023,3.644,4,6c2.156-0.844,0.844-5.156,3-6c4.598,1.768-0.597,9.705-2,12c-3.124,0.458-3.197-2.137-3-5
		c-3.642-0.642-1.236,4.764-4,5C225.088,288.912,226.065,281.935,224,278z"/>
	<path fill-rule="evenodd" clip-rule="evenodd" d="M255,278c0,4,0,8,0,12c-4.279-1.266-4.945,0.073-10,0
		C238.893,281.752,247.053,275.923,255,278z M251,287c0.224-0.776,0.027-1.973,1-2c-0.188-2.813-1.739-4.261-5-4
		C244.742,283.551,246.058,288.593,251,287z"/>
	<path fill-rule="evenodd" clip-rule="evenodd" d="M258,278c3.775,0.935,4.694,0.056,7,1c-2.342,2.991-4.387,6.28-5,11
		C255.731,289.602,259.047,281.62,258,278z"/>
	<path fill-rule="evenodd" clip-rule="evenodd" fill="#FFFFFF" d="M173,281c1,0,2,0,3,0C181.169,288.249,167.831,288.249,173,281z"
		/>
	<path fill-rule="evenodd" clip-rule="evenodd" fill="#FFFFFF" d="M193,281c3.26-0.261,4.813,1.188,5,4c-1.907,0.426-1.81,2.857-5,2
		C191.632,285.722,191.632,282.278,193,281z"/>
	<path fill-rule="evenodd" clip-rule="evenodd" fill="#FFFFFF" d="M247,281c3.261-0.261,4.813,1.188,5,4
		c-0.973,0.027-0.776,1.224-1,2C246.058,288.593,244.742,283.551,247,281z"/>
	<path fill-rule="evenodd" clip-rule="evenodd" fill="#FFFFFF" d="M270,281c3.562-0.229,5.229,1.438,5,5
		c-1.161,0.839-2.681,1.319-5,1C268.633,285.722,268.633,282.278,270,281z"/>
</g>
<g id="Layer_3" display="none">
	<path display="inline" fill-rule="evenodd" clip-rule="evenodd" d="M244,129c0,26,0,52,0,78c-15.596,7.737-29.403,17.263-45,25
		c-16.195-7.805-30.904-17.096-46-26c0-25.667,0-51.333,0-77c15.56-8.44,30.297-17.703,46-26
		C213.928,111.739,229.301,120.032,244,129z M199,109c-13.943,7.391-27.377,15.289-41,23c0,15.333,0,30.667,0,46
		c14.98,6.02,26.294,15.706,41,22c6.645-3.022,12.141-7.193,19-10c0-6,0-12,0-18c-7.766,1.234-11.783,6.217-19,8
		c-8.557-3.443-16.557-7.443-24-12c0-8.667,0-17.333,0-26c8.243-4.424,15.836-9.497,24-14c13.309,7.691,26.769,15.231,40,23
		c0-6.667,0-13.333,0-20C224.828,124.506,212.387,116.28,199,109z M199,135c-6.968,2.698-11.581,7.752-19,10
		c0.655,6.345-1.318,15.318,1,20c5.654-3.679,11.758-6.909,18-10c6.965,5.368,17.563,7.104,24,13c0,8.333,0,16.667,0,25
		c-8.837,4.164-15.197,10.803-25,14c-13.491-7.176-25.756-15.577-40-22c0,5.667,0,11.333,0,17c13.335,8.332,26.429,16.904,41,24
		c13.973-7.027,26.205-15.795,40-23c0-15.333,0-30.667,0-46C224.309,151.025,212.558,142.109,199,135z M187,167
		c2.548,4.118,7.687,5.646,13,7c3.443-2.557,7.754-4.246,11-7C202.548,160.28,195.761,161.491,187,167z"/>
	<path display="inline" fill-rule="evenodd" clip-rule="evenodd" fill="#FFFFFF" d="M239,131c0,6.667,0,13.333,0,20
		c-13.231-7.769-26.691-15.309-40-23c-8.164,4.503-15.757,9.576-24,14c0,8.667,0,17.333,0,26c7.443,4.557,15.443,8.557,24,12
		c7.217-1.783,11.234-6.766,19-8c0,6,0,12,0,18c-6.859,2.807-12.355,6.978-19,10c-14.706-6.294-26.02-15.98-41-22
		c0-15.333,0-30.667,0-46c13.623-7.711,27.057-15.609,41-23C212.387,116.28,224.828,124.506,239,131z"/>
	<path display="inline" fill-rule="evenodd" clip-rule="evenodd" fill="#FFFFFF" d="M239,157c0,15.333,0,30.667,0,46
		c-13.795,7.205-26.027,15.973-40,23c-14.571-7.096-27.665-15.668-41-24c0-5.667,0-11.333,0-17c14.244,6.423,26.509,14.824,40,22
		c9.803-3.197,16.163-9.836,25-14c0-8.333,0-16.667,0-25c-6.437-5.896-17.035-7.632-24-13c-6.242,3.091-12.346,6.321-18,10
		c-2.318-4.682-0.345-13.655-1-20c7.419-2.248,12.032-7.302,19-10C212.558,142.109,224.309,151.025,239,157z"/>
	<path display="inline" fill-rule="evenodd" clip-rule="evenodd" fill="#FFFFFF" d="M211,167c-3.246,2.754-7.557,4.443-11,7
		c-5.313-1.354-10.452-2.882-13-7C195.761,161.491,202.548,160.28,211,167z"/>
	<path display="inline" fill-rule="evenodd" clip-rule="evenodd" d="M145,279c-3.291,2.079-7.553-3.286-11,1
		c-0.484,3.817,0.284,6.383,2,8c4.118,0.785,5.132-1.535,9-1c-1.136,4.24-3.361,5.063-7,5C122.876,291.742,133.02,264.169,145,279z"
		/>
	<path display="inline" fill-rule="evenodd" clip-rule="evenodd" d="M159,279c-2.678,3.102-3.802-2.622-6,0
		c-0.012,4.569,3.284,6.936,7,5c0.297,2.067,1.162,5.563,0,8c-4.736-1.464-11.906,1.786-13-5c-0.169-2.503,1.536-3.131,3-4
		C144.764,276.31,158.313,271.008,159,279z M151,288c1.496-0.17,3.69,0.357,4-1c-1.987-0.013-1.271-2.729-4-2
		C151,286,151,287,151,288z"/>
	<path display="inline" fill-rule="evenodd" clip-rule="evenodd" d="M167,276c13.618-6.043,15.443,15.478,4,16
		C161.879,292.416,157.802,280.081,167,276z M168,288c5.521,0.854,7.356-1.978,8-6C173.009,273.456,160.769,281.368,168,288z"/>
	<path display="inline" fill-rule="evenodd" clip-rule="evenodd" d="M187,275c1,0,2,0,3,0c0.006,4.327,2.321,6.346,2,11
		c3.824-1.509,1.522-9.145,5-11c3.437,1.23,3.457,5.876,4,10c4.372-0.628,1.907-8.093,5-10c4.417,3.376-0.788,13.664-3,17
		c-4.623-0.378-3.945-6.055-5-10c-2.709,2.29-1.484,8.516-5,10C188.274,289.543,186.795,279.121,187,275z"/>
	<path display="inline" fill-rule="evenodd" clip-rule="evenodd" d="M210,275c2.09-0.424,2.647,0.686,4,1
		c-0.354,1.313-1.761,1.573-2,3C210.241,278.759,209.721,277.279,210,275z"/>
	<path display="inline" fill-rule="evenodd" clip-rule="evenodd" fill="#FFFFFF" d="M176,282c-0.644,4.022-2.479,6.854-8,6
		C160.769,281.368,173.009,273.456,176,282z"/>
	<path display="inline" fill-rule="evenodd" clip-rule="evenodd" d="M210,280c1,0,2,0,3,0c-0.638,3.695,1.295,9.962-1,12
		C207.731,291.602,211.047,283.62,210,280z"/>
	<path display="inline" fill-rule="evenodd" clip-rule="evenodd" d="M216,280c4.896,0.647,4.698,0.175,10,0
		c1.326,2.057,1.896,10.038,0,12c-5.37,0.703,1.759-11.092-5-9c-2.552,1.115,0.401,7.734-2,9
		C213.701,292.299,216.854,284.146,216,280z"/>
	<path display="inline" fill-rule="evenodd" clip-rule="evenodd" d="M230,280c3.396,0.271,8.107-0.774,10,1
		c1.278,1.778,1.926,9.33,0,11c-4.833,0.5,0.633-9.299-4-9c-4.635-0.635-2.532,5.468-3,9C227.701,292.299,230.854,284.146,230,280z"
		/>
	<path display="inline" fill-rule="evenodd" clip-rule="evenodd" d="M256,286c-1.454,1.546-5.119,0.881-8,1
		c0.707,4.003,4.693,0.057,6,2c-1.923,5.991-8.987,1.694-10,0C239.547,281.547,254.251,274.191,256,286z M249,285
		c0.016-1.651,2.773-0.56,3-2C249.963,282.146,245.787,283.871,249,285z"/>
	<path display="inline" fill-rule="evenodd" clip-rule="evenodd" d="M258,280c3.988,0.549,3.012,0.549,7,0
		c-1.555,4.111-4.821,6.513-5,12C256.257,291.077,258.696,283.97,258,280z"/>
	<path display="inline" fill-rule="evenodd" clip-rule="evenodd" fill="#FFFFFF" d="M252,283c-0.227,1.44-2.984,0.349-3,2
		C245.787,283.871,249.963,282.146,252,283z"/>
	<path display="inline" fill-rule="evenodd" clip-rule="evenodd" fill="#FFFFFF" d="M151,285c2.729-0.729,2.013,1.987,4,2
		c-0.31,1.357-2.504,0.83-4,1C151,287,151,286,151,285z"/>
</g>
</svg>
